:SAMPLES-PER-SECOND 30
:FULLY-SPECIFIED
:DEGREES
523
root  13.0856 30.9968 -39.8569 179.26 -6.15666 177.032
RightUpLeg  -5.70007 -3.11552 4.26098
RightLeg  45.0268 -10.3057 -8.97104
RightFoot  -24.5443 1.18066 5.80151
RightToes  -15.9511 -0.0600565 -0.143498
Spine  6.53992 -1.37782 -4.33727
Spine1  9.83905 -0.482159 -10.8332
HEad  -40.3615 -32.6656 25.4835
LeftShoulder1  0 -2.42657e-020 -4.95415e-022
LeftArm  -16.4034 -60.111 -54.6328
LeftForeArm  25.3779 -61.7039 -19.2003
LeftHand  0.402719 -4.20306 -11.33
RightShoulder  0 2.42657e-020 1.07489e-018
RightArm  -98.3333 67.6311 -5.01992
RightForeArm  49.6144 13.0955 2.32444
RightHand  2.15697 24.4638 10.2984
LeftUpLeg  -9.60797 -2.86152 -2.0054
LeftLeg  46.2454 -0.149469 -0.143843
LeftFoot  -19.4583 -0.000179575 -0.00105642
LeftToes  -21.1774 2.34596e-006 -6.06653e-008
524
root  13.4711 31.6544 -40.3656 179.852 -5.19972 177.685
RightUpLeg  -6.73343 -2.13189 5.5459
RightLeg  46.1297 -10.4591 -9.4546
RightFoot  -16.2739 0.526707 4.06029
RightToes  -27.5325 -0.127304 -0.234456
Spine  6.20591 -0.771714 -4.6876
Spine1  9.07809 0.997058 -11.7254
HEad  -41.1591 -33.4098 26.8606
LeftShoulder1  0 -2.42657e-020 -4.95415e-022
LeftArm  -5.39245 -45.5192 -63.9304
LeftForeArm  31.3941 -55.7506 -15.0549
LeftHand  0.63195 -6.3237 -11.785
RightShoulder  0 2.42657e-020 1.07489e-018
RightArm  -62.86 65.0054 27.3849
RightForeArm  43.5158 11.904 2.11396
RightHand  2.70037 25.9577 12.0507
LeftUpLeg  -8.17284 -1.9722 -0.447582
LeftLeg  43.2275 -0.512025 -0.428702
LeftFoot  -14.9916 0.0190693 0.144918
LeftToes  -25.3667 2.34596e-006 -6.06653e-008
525
root  13.967 32.4848 -40.7429 -178.285 -5.10172 178.641
RightUpLeg  -11.486 -4.41957 6.60926
RightLeg  49.8332 -8.88727 -9.17453
RightFoot  -5.00221 0.0390975 1.27279
RightToes  -37.7553 -0.200804 -0.302094
Spine  5.37258 -0.769775 -4.80916
Spine1  7.66181 0.955745 -12.0428
HEad  -41.9672 -33.1772 28.196
LeftShoulder1  0 -2.42657e-020 -4.95415e-022
LeftArm  -3.84699 -32.2721 -68.788
LeftForeArm  34.6342 -45.7374 -10.4319
LeftHand  0.748782 -7.37128 -11.9659
RightShoulder  0 2.42657e-020 1.07489e-018
RightArm  -46.6195 57.6749 53.3569
RightForeArm  53.0468 12.1743 2.14823
RightHand  2.46776 24.2353 11.8302
LeftUpLeg  -7.30119 -1.07905 1.82003
LeftLeg  38.0035 -1.8032 -1.23565
LeftFoot  -9.73836 0.0318788 0.374204
LeftToes  -29.8011 2.34596e-006 -6.06653e-008
526
root  14.429 33.1157 -41.1921 -176.485 -5.68214 179.428
RightUpLeg  -16.7577 -9.08544 7.33035
RightLeg  53.823 -6.43856 -7.70341
RightFoot  0.891277 0.00286191 0.00959388
RightToes  -30.4144 -0.146785 -0.254836
Spine  5.32408 -1.10665 -4.87606
Spine1  7.70389 0.12292 -12.1551
HEad  -43.8431 -32.8632 30.6469
LeftShoulder1  0 -2.42657e-020 -4.95415e-022
LeftArm  -7.49894 -22.6102 -70.8319
LeftForeArm  33.5526 -37.0708 -7.65009
LeftHand  0.900289 -8.68067 -12.1995
RightShoulder  0 2.42657e-020 1.07489e-018
RightArm  -44.7835 49.4465 68.0476
RightForeArm  57.4816 11.9434 2.09703
RightHand  1.5022 22.5642 7.89184
LeftUpLeg  -6.08616 -0.599706 3.76104
LeftLeg  32.5103 -3.10719 -1.71294
LeftFoot  -5.75003 0.0172713 0.343899
LeftToes  -31.968 2.34596e-006 -6.06653e-008
527
root  14.9005 33.3839 -41.6103 -174.826 -6.19597 -179.107
RightUpLeg  -21.8814 -11.5107 9.25561
RightLeg  54.2462 -2.28383 -2.83401
RightFoot  -0.608695 -0.00110175 0.170334
RightToes  -35.8668 -0.186336 -0.290604
Spine  5.65627 -1.08676 -4.32085
Spine1  8.16577 0.279251 -11.4854
HEad  -45.9756 -33.0171 32.9173
LeftShoulder1  0 -2.42657e-020 -4.95415e-022
LeftArm  -12.348 -15.3801 -73.5167
LeftForeArm  34.042 -31.4445 -6.17945
LeftHand  0.667468 -7.83505 -10.1024
RightShoulder  0 2.42657e-020 1.07489e-018
RightArm  -45.1068 42.2329 74.3901
RightForeArm  61.7011 10.3099 1.78979
RightHand  1.09524 22.1336 5.96707
LeftUpLeg  -5.39343 -0.906021 6.20661
LeftLeg  28.5644 -3.82639 -1.77635
LeftFoot  -4.34386 0.0102081 0.269152
LeftToes  -32.8706 2.34596e-006 -6.06653e-008
528
root  15.3705 33.3927 -41.9952 -173.79 -6.00859 -177.702
RightUpLeg  -25.7036 -12.0373 11.1783
RightLeg  49.6331 1.40513 1.40691
RightFoot  -0.734671 -0.00212486 0.0461686
RightToes  -45.9852 -0.267973 -0.346376
Spine  6.22868 -0.701959 -3.61818
Spine1  9.0657 1.22543 -10.7919
HEad  -47.7156 -33.4354 34.7357
LeftShoulder1  0 -2.42657e-020 -4.95415e-022
LeftArm  -17.6439 -9.84957 -75.7991
LeftForeArm  32.3165 -27.6361 -5.28702
LeftHand  0.467344 -5.93534 -9.37717
RightShoulder  0 2.42657e-020 1.07489e-018
RightArm  -44.4788 35.1365 78.4994
RightForeArm  60.5593 10.0918 1.75281
RightHand  0.910895 21.9056 5.07577
LeftUpLeg  -4.64012 -1.3406 8.32144
LeftLeg  26.1271 -3.34982 -1.3859
LeftFoot  -4.43313 0.00709446 0.183283
LeftToes  -33.4054 2.34596e-006 -6.06653e-008
